<?xml version="1.0" standalone="no"?>
<!DOCTYPE svg PUBLIC "-//W3C//DTD SVG 20010904//EN"
 "http://www.w3.org/TR/2001/REC-SVG-20010904/DTD/svg10.dtd">
<svg version="1.0" xmlns="http://www.w3.org/2000/svg"
 width="300.000000pt" height="300.000000pt" viewBox="0 0 300.000000 300.000000"
 preserveAspectRatio="xMidYMid meet">
<metadata>
Created by potrace 1.10, written by Peter Selinger 2001-2011
</metadata>
<g transform="translate(0.000000,300.000000) scale(0.100000,-0.100000)"
fill="#FF0000" stroke="none">
<path d="M1233 2860 c-441 -92 -805 -378 -988 -775 -37 -81 -90 -253 -107
-345 -17 -97 -17 -363 0 -460 27 -148 107 -366 179 -485 184 -304 495 -535
841 -625 157 -41 396 -52 552 -25 338 57 611 209 831 465 53 62 129 165 129
175 0 2 13 27 29 54 139 236 201 577 156 862 -19 121 -28 157 -66 265 -69 197
-165 348 -318 505 -192 196 -423 324 -691 385 -119 26 -428 29 -547 4z m537
-39 c143 -33 327 -103 344 -129 3 -6 20 -13 36 -17 17 -4 30 -10 30 -13 0 -4
12 -13 28 -19 15 -7 41 -25 59 -41 17 -16 46 -39 65 -50 53 -33 165 -153 149
-159 -14 -6 -118 -91 -176 -145 -34 -32 -45 -35 -45 -13 0 9 -10 29 -21 45
l-21 28 61 85 c73 101 79 135 28 159 -32 15 -34 15 -64 -11 -30 -25 -160 -193
-170 -218 -11 -29 -23 -10 -17 26 6 35 3 43 -21 65 l-28 26 40 0 c57 0 82 39
59 93 -6 12 -4 17 10 17 25 0 54 29 54 56 0 30 -47 68 -110 89 -78 26 -82 22
-176 -179 -15 -33 -30 -74 -34 -90 l-6 -31 -109 3 c-184 5 -325 -28 -515 -122
-113 -56 -342 -192 -402 -239 -48 -36 -48 -22 -1 62 158 284 555 410 966 306
22 -6 26 -4 22 8 -4 8 5 31 19 52 33 48 33 85 0 141 -19 32 -22 44 -12 44 8 0
25 11 37 24 66 70 -74 152 -166 96 -43 -26 -56 -54 -50 -107 3 -33 14 -54 38
-79 l33 -34 -32 12 c-28 11 -34 10 -57 -12 -14 -13 -25 -34 -25 -47 0 -19 -5
-23 -30 -23 -34 0 -40 21 -15 54 19 25 19 116 1 161 -52 123 -205 156 -297 64
-52 -52 -68 -123 -45 -201 9 -30 23 -61 31 -68 19 -16 19 -36 -1 -44 -10 -4
-34 10 -65 36 -43 36 -49 45 -44 69 16 71 -31 140 -106 154 -55 10 -169 -43
-169 -79 0 -13 41 -116 87 -214 18 -40 33 -74 33 -75 0 -10 -189 -197 -198
-197 -7 0 -12 12 -12 27 0 49 -59 113 -105 113 -7 0 -32 16 -55 35 -47 39 -77
43 -135 19 -42 -17 -40 -11 10 46 213 243 489 400 790 449 39 6 81 13 95 15
63 11 329 -4 410 -23z m-330 -56 c78 -40 111 -144 71 -224 -29 -56 -72 -81
-139 -81 -47 0 -57 4 -92 38 -46 42 -62 100 -48 166 20 92 126 144 208 101z
m377 -29 c26 -23 27 -26 11 -42 -16 -16 -18 -16 -34 0 -23 23 -68 17 -72 -9
-2 -14 12 -35 43 -63 51 -49 63 -80 45 -122 -26 -62 -99 -79 -157 -34 -36 27
-43 58 -16 73 14 7 21 3 35 -20 19 -31 54 -39 76 -17 24 24 12 53 -38 96 -53
45 -61 72 -38 115 28 53 97 64 145 23z m-750 -92 c34 -38 39 -71 15 -102 l-20
-27 65 -42 65 -42 -34 -14 c-32 -13 -35 -12 -95 30 -35 24 -63 41 -63 38 0 -3
12 -29 26 -57 25 -49 25 -52 8 -65 -23 -17 -44 -17 -44 0 0 8 -6 27 -14 43
-28 56 -96 215 -96 223 0 5 8 11 18 14 9 3 35 13 57 21 49 19 83 13 112 -20z
m1029 -1 c30 -13 54 -26 54 -28 0 -2 -3 -10 -6 -19 -8 -21 -27 -20 -73 3 l-38
20 -16 -34 -17 -35 50 -21 c45 -19 48 -22 38 -44 l-11 -24 -47 24 -47 24 -16
-35 c-10 -19 -17 -39 -17 -43 0 -5 20 -17 45 -28 46 -18 52 -27 36 -52 -8 -12
-22 -9 -83 19 -40 18 -74 34 -75 35 -2 1 12 33 31 71 19 38 48 100 65 137 36
76 30 75 127 30z m208 -122 c17 -18 15 -23 -49 -105 -36 -47 -70 -88 -76 -91
-18 -12 -8 -35 25 -57 29 -20 32 -26 21 -41 -7 -9 -15 -17 -19 -17 -4 0 -32
18 -62 41 l-55 40 28 38 c111 150 159 211 164 211 3 0 14 -9 23 -19z m-425
-177 c96 -24 174 -69 263 -153 106 -99 156 -167 210 -281 45 -96 56 -126 82
-235 17 -67 13 -80 -12 -44 -85 121 -258 223 -477 279 -44 11 -88 23 -97 26
-15 4 -18 -1 -18 -36 0 -24 5 -42 13 -44 6 -2 50 -14 97 -27 203 -53 351 -123
455 -213 l55 -47 0 -67 c0 -129 -35 -278 -94 -405 -33 -71 -38 -76 -72 -83
-78 -14 -264 33 -446 114 -5 2 -8 -10 -8 -27 0 -29 5 -34 63 -60 137 -63 186
-76 289 -76 54 0 98 -3 98 -6 0 -10 -163 -175 -205 -206 -57 -43 -158 -98
-240 -129 -65 -24 -79 -26 -180 -21 -216 10 -386 90 -562 265 -98 96 -116 117
-178 212 -69 106 -154 296 -155 346 0 6 20 17 45 24 68 19 204 8 299 -24 63
-21 81 -24 87 -14 28 44 -12 80 -116 104 -99 22 -261 25 -298 5 -15 -8 -29
-12 -32 -9 -3 2 -8 46 -13 97 -8 88 -7 94 13 107 28 18 279 101 333 110 40 6
42 8 42 41 0 28 -3 33 -17 29 -10 -3 -47 -12 -83 -21 -90 -23 -240 -75 -267
-93 -22 -13 -23 -13 -23 10 0 84 34 178 64 178 6 0 38 16 71 36 96 58 508 273
566 296 144 56 324 73 448 42z m626 -4 c18 -20 18 -21 -1 -38 -26 -23 -168
-146 -173 -149 -2 -1 11 -19 28 -39 32 -36 32 -36 12 -51 -19 -13 -23 -11 -53
23 -18 21 -39 43 -46 51 -8 7 -12 17 -10 22 2 5 48 48 103 96 55 48 102 91
103 96 6 14 18 11 37 -11z m-1923 -47 c10 -9 18 -22 18 -30 0 -8 12 -13 36
-13 26 0 43 -8 66 -30 41 -41 34 -82 -22 -149 l-42 -50 -120 102 -119 102 51
49 c45 43 55 48 82 42 18 -3 40 -14 50 -23z m2026 -40 c21 -32 50 -79 65 -105
36 -62 40 -59 -123 -77 -142 -16 -134 -18 -148 35 l-12 46 77 77 c43 43 83 78
90 79 7 1 30 -24 51 -55z m-2228 -42 c0 -20 203 -194 239 -206 15 -4 21 -15
21 -36 0 -37 -20 -37 -41 0 -30 52 -109 43 -109 -13 0 -27 -9 -40 -37 -54 -25
-14 -49 -7 -80 21 -29 26 -28 42 2 92 l24 39 -21 23 c-12 13 -30 23 -40 23
-10 0 -21 6 -24 14 -5 13 17 66 38 94 12 14 28 16 28 3z m388 -143 c-64 -112
-67 -118 -83 -118 -8 0 -15 4 -15 9 0 17 119 181 131 181 4 0 -11 -33 -33 -72z
m-405 -5 c23 -7 22 -19 -2 -26 -10 -2 -27 -17 -36 -31 -52 -79 81 -188 161
-131 31 21 48 68 34 94 -13 25 -8 26 30 6 34 -17 37 -38 16 -89 -57 -137 -283
-98 -303 52 -7 51 0 81 28 116 14 18 27 25 38 20 9 -3 24 -9 34 -11z m2365
-28 c11 -24 7 -31 -62 -103 -41 -42 -91 -96 -111 -119 -21 -24 -41 -43 -45
-43 -4 0 -12 10 -17 23 -9 18 -7 27 13 48 l24 25 -22 52 c-22 51 -24 52 -61
50 -29 -2 -41 3 -53 21 -9 12 -14 24 -12 27 3 2 74 11 159 20 84 8 155 17 158
20 9 9 18 3 29 -21z m51 -142 c72 -245 77 -485 16 -719 -30 -116 -88 -263
-126 -319 -16 -23 -29 -48 -29 -54 0 -6 -3 -11 -8 -11 -4 0 -13 -12 -19 -27
-7 -16 -36 -57 -64 -92 -49 -60 -53 -63 -66 -45 -8 10 -21 28 -31 39 -9 11
-23 32 -29 48 -18 40 -54 36 -106 -12 -135 -124 -187 -161 -226 -161 -11 0
-37 -15 -57 -32 -27 -24 -45 -32 -66 -29 -21 2 -36 -5 -57 -28 -26 -28 -32
-30 -55 -20 -22 10 -29 8 -56 -14 -28 -24 -34 -25 -53 -14 -52 32 -111 -4
-104 -63 10 -74 20 -102 42 -116 23 -15 67 -11 92 8 7 6 20 8 28 4 9 -3 27 1
40 10 13 9 35 14 48 12 13 -1 31 3 40 10 9 8 33 12 54 10 l38 -3 -34 -18 c-19
-9 -41 -17 -51 -17 -9 0 -20 -4 -25 -9 -6 -6 -22 -12 -37 -15 -16 -3 -40 -8
-55 -12 -15 -3 -30 -7 -35 -10 -39 -24 -376 -38 -473 -20 -109 21 -150 31
-235 58 -190 60 -375 173 -523 321 -108 108 -124 127 -184 218 -40 63 -133
248 -137 274 -1 5 -4 15 -8 20 -9 15 -45 154 -53 205 -4 25 -9 54 -11 65 -2
11 -6 79 -8 150 -3 131 15 279 47 384 l14 45 19 -23 c60 -74 80 -93 112 -106
50 -22 125 -19 174 6 l41 21 -7 -29 c-4 -15 -10 -54 -13 -85 -7 -74 11 -77 27
-5 12 53 43 147 66 203 11 26 17 31 39 27 29 -6 29 -3 10 -73 -8 -30 -15 -67
-15 -82 0 -18 -9 -33 -29 -47 -16 -12 -40 -38 -52 -59 -13 -20 -26 -39 -29
-42 -4 -3 -15 -29 -25 -59 -33 -102 -6 -273 48 -299 25 -12 27 -18 27 -71 0
-71 28 -155 76 -230 39 -60 218 -241 262 -264 15 -8 56 -31 92 -51 149 -83
427 -139 510 -103 l35 15 -60 1 c-275 5 -521 107 -704 293 -128 129 -187 254
-179 376 6 90 59 200 72 150 24 -93 100 -251 171 -358 69 -103 223 -255 317
-314 98 -61 195 -101 278 -116 36 -6 76 -14 90 -18 14 -4 75 -5 135 -2 102 5
117 9 201 46 141 64 268 161 349 266 28 38 41 64 38 77 -4 14 3 24 25 35 47
24 115 172 148 321 12 57 17 255 5 268 -6 7 -8 29 -5 48 3 19 -2 62 -10 97 -9
34 -14 67 -11 72 3 6 3 10 -2 10 -9 0 -38 68 -49 113 l-6 28 38 -16 c45 -18
56 -32 50 -60 -3 -11 -9 -36 -14 -55 -7 -32 -5 -37 21 -57 21 -16 35 -20 46
-13 20 10 165 157 187 189 26 37 42 25 63 -46z m-2109 -284 c0 -33 5 -80 11
-103 10 -40 9 -45 -16 -72 -33 -35 -60 -87 -70 -132 -11 -53 -22 -26 -36 89
-11 96 -11 111 4 151 18 45 81 128 98 128 5 0 9 -27 9 -61z m90 -138 c-1 -3
-9 -16 -19 -28 -20 -24 -48 -32 -34 -10 8 13 10 18 12 41 1 14 41 11 41 -3z
m1638 -770 c-2 -12 12 -35 35 -59 54 -56 29 -68 -27 -13 -30 30 -45 38 -53 30
-22 -22 -23 10 -1 34 28 31 50 34 46 8z m-68 -61 c0 -5 -7 -13 -17 -18 -10 -6
-14 -16 -9 -27 6 -17 7 -17 26 0 10 9 24 14 31 10 8 -6 6 -13 -9 -24 -16 -12
-19 -20 -12 -31 8 -12 13 -13 30 -2 11 6 22 12 25 12 14 0 1 -27 -22 -44 -29
-21 -19 -28 -87 58 l-28 36 23 20 c26 21 49 26 49 10z m-61 -97 c36 -54 36
-68 1 -95 -34 -25 -52 -17 -94 42 -26 37 -31 50 -21 54 9 3 25 -10 42 -34 29
-41 48 -54 64 -44 16 9 10 30 -20 71 -27 37 -30 53 -10 53 4 0 21 -21 38 -47z
m-125 -58 c14 -13 26 -34 26 -46 0 -12 8 -28 18 -35 16 -13 16 -13 -3 -14 -11
0 -29 -7 -39 -15 -73 -56 -162 58 -90 114 35 27 55 26 88 -4z m-154 -46 c0 -5
-9 -9 -20 -9 -11 0 -20 -7 -20 -15 0 -8 9 -15 21 -15 55 0 80 -54 38 -83 -23
-17 -59 -11 -59 9 0 10 7 13 25 8 21 -5 25 -3 25 15 0 15 -6 21 -23 21 -56 0
-75 53 -27 77 24 12 40 9 40 -8z m-140 -28 c0 -4 18 -31 40 -59 22 -27 40 -55
40 -61 0 -16 -27 -14 -33 3 -9 22 -57 7 -68 -22 -17 -44 -27 -10 -18 61 4 37
11 72 14 77 8 12 25 13 25 1z m-105 -37 c9 -9 14 -23 11 -31 -3 -8 1 -21 9
-29 8 -9 15 -20 15 -25 0 -18 -40 -49 -64 -49 -20 0 -25 7 -35 57 -15 76 -14
81 12 86 12 2 25 5 29 6 4 0 14 -6 23 -15z m360 -63 c-7 -13 -65 -34 -72 -28
-3 4 0 13 6 21 19 22 80 28 66 7z"/>
<path d="M1350 2723 c-28 -11 -59 -46 -65 -74 -9 -39 11 -94 42 -119 92 -72
197 72 116 159 -28 31 -66 44 -93 34z m57 -48 c44 -31 29 -125 -20 -125 -59 0
-92 91 -45 124 28 20 38 20 65 1z"/>
<path d="M968 2623 c-10 -2 -18 -7 -18 -11 0 -19 36 -92 46 -92 16 0 44 34 44
53 0 18 -34 58 -47 56 -5 -1 -16 -3 -25 -6z"/>
<path d="M1134 2011 c0 -15 9 -22 38 -26 68 -12 68 -14 68 -342 0 -202 -4
-300 -12 -318 -11 -24 -22 -30 -73 -37 -12 -2 -21 -12 -23 -26 l-3 -22 188 2
c180 3 188 4 188 23 0 15 -9 21 -38 26 -21 3 -43 11 -50 18 -8 7 -14 60 -17
141 l-5 130 37 0 c43 0 61 -20 123 -135 55 -103 95 -152 142 -176 43 -21 167
-44 190 -35 22 9 15 33 -14 51 -52 33 -86 78 -177 229 l-65 109 52 31 c74 45
99 91 95 182 -3 59 -8 77 -31 107 -55 73 -119 86 -397 87 -207 0 -216 -1 -216
-19z m244 -25 c2 -3 -1 -14 -8 -25 -7 -15 -9 -72 -6 -179 2 -86 5 -166 5 -177
0 -11 -2 -66 -5 -122 -4 -75 -2 -115 9 -152 l15 -51 -70 0 c-68 0 -70 1 -63
23 20 66 22 105 24 333 1 227 -3 286 -24 336 -4 11 -1 17 12 20 20 5 105 0
111 -6z m320 -42 c30 -29 52 -79 52 -119 0 -53 -32 -105 -89 -148 -32 -23 -51
-45 -51 -57 0 -36 86 -181 189 -321 12 -17 11 -19 -13 -19 -68 0 -132 52 -181
146 -16 31 -46 82 -67 113 -23 35 -32 57 -25 60 34 10 91 60 110 95 17 32 22
59 22 118 0 70 -3 80 -32 121 -17 25 -29 48 -26 50 9 9 90 -20 111 -39z m-158
21 c86 -45 100 -227 24 -297 -27 -24 -63 -36 -119 -39 l-48 -3 2 169 c1 93 4
173 7 177 9 14 104 9 134 -7z"/>
<path d="M487 2252 c-15 -16 -14 -19 17 -44 34 -28 39 -27 60 9 8 14 -27 53
-47 53 -8 0 -21 -8 -30 -18z"/>
<path d="M591 2176 l-22 -23 37 -28 c35 -27 37 -27 50 -10 27 36 11 85 -26 85
-9 0 -26 -11 -39 -24z"/>
<path d="M2588 1991 c-26 -4 -50 -10 -53 -13 -4 -3 2 -22 12 -41 l18 -35 43
49 c24 27 40 48 35 48 -4 -1 -29 -5 -55 -8z"/>
<path d="M624 738 c-67 -50 -100 -98 -86 -125 12 -21 54 -62 65 -62 4 0 19
-14 32 -30 14 -16 37 -32 52 -36 15 -3 41 -22 58 -41 18 -22 41 -36 58 -38 16
-2 38 -14 50 -29 24 -28 72 -51 89 -41 5 3 29 -8 52 -24 24 -17 51 -31 62 -31
45 -1 83 -10 114 -26 49 -25 65 -5 63 80 -3 109 -38 139 -99 86 -19 -17 -36
-31 -37 -31 -1 0 -2 17 -2 37 0 32 -5 40 -30 53 -16 8 -44 25 -62 38 -17 12
-40 22 -50 22 -11 0 -32 14 -48 30 -16 17 -37 30 -47 30 -9 0 -32 15 -51 33
-69 66 -139 127 -146 127 -4 0 -21 -10 -37 -22z m65 -32 c28 -29 19 -56 -9
-31 -26 23 -47 9 -24 -16 22 -24 10 -38 -18 -20 -30 18 -48 -2 -24 -28 27 -30
0 -36 -31 -7 l-28 26 50 50 c27 27 52 50 55 50 4 0 17 -11 29 -24z m83 -73
c22 -20 23 -33 3 -33 -8 0 -15 5 -15 10 0 6 -7 10 -15 10 -11 0 -13 -9 -9 -43
6 -39 4 -44 -21 -57 -26 -14 -28 -13 -51 13 -13 16 -22 33 -19 38 10 15 23 10
30 -11 7 -22 31 -27 37 -8 3 7 -1 24 -8 37 -11 21 -11 28 3 43 20 22 41 23 65
1z m99 -71 c15 -13 20 -25 16 -36 -7 -16 -9 -16 -26 5 -19 23 -21 23 -48 9
-35 -20 -38 -60 -5 -75 24 -11 28 -20 11 -31 -19 -11 -58 17 -64 48 -8 34 15
74 48 88 33 13 43 12 68 -8z m119 -72 c25 -25 26 -70 0 -97 -28 -31 -55 -36
-90 -18 -27 14 -30 21 -30 60 0 34 5 47 22 59 31 22 74 20 98 -4z m90 -36 c0
-3 -9 -22 -20 -44 -25 -48 -25 -59 -3 -76 10 -7 15 -16 11 -20 -8 -7 -68 14
-68 25 0 3 12 34 26 68 18 42 31 60 40 56 8 -3 14 -7 14 -9z m120 -83 c0 -27
3 -63 6 -80 6 -26 4 -30 -10 -25 -9 3 -16 13 -16 20 0 19 -51 39 -60 23 -4 -6
-15 -9 -25 -7 -14 2 -9 13 29 61 59 72 76 74 76 8z"/>
<path d="M916 478 c-23 -13 -22 -75 3 -83 10 -3 26 -3 35 1 18 7 31 46 23 68
-7 18 -40 26 -61 14z"/>
<path d="M1337 392 c-26 -29 -38 -126 -19 -153 20 -29 50 -37 96 -27 25 6 43
5 50 -2 5 -5 26 -10 46 -10 44 0 80 31 61 53 -6 8 -8 16 -5 19 3 3 7 26 9 51
5 62 -14 78 -86 75 -30 -1 -72 2 -94 6 -34 7 -43 5 -58 -12z m91 -32 c26 -25
29 -76 5 -102 -11 -12 -30 -18 -61 -18 -41 0 -44 2 -39 23 3 12 9 43 12 70 7
43 10 47 34 47 15 0 37 -9 49 -20z m129 -2 c-2 -8 -15 -12 -30 -10 -22 3 -27
-1 -27 -18 0 -16 5 -20 22 -18 11 2 23 -3 25 -9 3 -8 -5 -13 -21 -13 -19 0
-26 -5 -26 -20 0 -16 7 -20 30 -20 17 0 30 -4 30 -10 0 -5 -20 -10 -43 -10
l-44 0 3 68 c1 37 3 68 3 70 1 1 19 2 42 2 28 0 39 -4 36 -12z"/>
<path d="M1368 306 c-2 -37 0 -46 13 -46 43 0 54 82 13 88 -19 3 -22 -2 -26
-42z"/>
<path d="M2072 468 c-30 -30 7 -95 46 -81 13 5 12 8 -4 20 -17 12 -9 19 19 14
12 -2 8 34 -5 47 -7 7 -19 12 -28 12 -9 0 -21 -5 -28 -12z"/>
<path d="M1717 304 c-14 -14 -7 -35 11 -32 9 2 17 10 17 17 0 16 -18 25 -28
15z"/>
</g>
</svg>
